<?xml version="1.0"?>
<!-- Converted with SVG Converter - Version 0.9.5 (Compiled Mon May 30 09:08:51 2011) - Copyright (C) 2011 Nokia -->
<svg xmlns="http://www.w3.org/2000/svg" width="67px" x="0px" y="0px" version="1.1" viewBox="0 0 67 57" height="57px" xmlns:xlink="http://www.w3.org/1999/xlink" baseProfile="tiny" id="svg3848" xml:space="preserve">
 <metadata id="metadata3877"/>
 <defs id="defs3875">
  <linearGradient id="SVGID_1_-1" y1="51.5" x1="33.5005" y2="5.5005002" gradientUnits="userSpaceOnUse" x2="33.5005">
   <stop offset="0" style="stop-color:#61744b;stop-opacity:1;" id="stop14"/>
   <stop offset="0.50309998" style="stop-color:#8fd257;stop-opacity:1;" id="stop16"/>
   <stop offset="0.60000002" style="stop-color:#7cc143;stop-opacity:1;" id="stop3793"/>
   <stop offset="0.96929997" style="stop-color:#6ab12f;stop-opacity:1;" id="stop18"/>
  </linearGradient>
  <linearGradient id="linearGradient3785" y1="51.5" y2="5.5005002" x1="33.5005" x2="33.5005" gradientUnits="userSpaceOnUse">
   <stop offset="0" style="stop-color:#D0CBC5" id="stop3787"/>
   <stop offset="0.5031" style="stop-color:#FAFCEF" id="stop3789"/>
   <stop offset="0.9693" style="stop-color:#FFFFFF" id="stop3791"/>
  </linearGradient>
  <linearGradient gradientTransform="translate(-44.103652,-14.581395)" id="linearGradient3815" y1="51.5" y2="5.5005002" x1="33.5005" x2="33.5005" gradientUnits="userSpaceOnUse">
   <stop offset="0" style="stop-color:#61744b;stop-opacity:1;" id="stop14"/>
   <stop offset="0.50309998" style="stop-color:#8fd257;stop-opacity:1;" id="stop16"/>
   <stop offset="0.60000002" style="stop-color:#7cc143;stop-opacity:1;" id="stop3793"/>
   <stop offset="0.96929997" style="stop-color:#6ab12f;stop-opacity:1;" id="stop18"/>
  </linearGradient>
  <linearGradient id="SVGID_1_" y1="50.0625" y2="6.938" x1="33.5005" x2="33.5005" gradientUnits="userSpaceOnUse">
   <stop offset="0" style="stop-color:#D0CBC5" id="stop3862"/>
   <stop offset="0.5031" style="stop-color:#FAFCEF" id="stop3864"/>
   <stop offset="0.9693" style="stop-color:#FFFFFF" id="stop3866"/>
  </linearGradient>
  <linearGradient id="linearGradient4440" y1="50.0625" x1="33.5005" y2="6.9380002" gradientUnits="userSpaceOnUse" x2="33.5005">
   <stop offset="0" style="stop-color:#61744b;stop-opacity:1;" id="stop14"/>
   <stop offset="0.50309998" style="stop-color:#8fd257;stop-opacity:1;" id="stop16"/>
   <stop offset="0.60000002" style="stop-color:#7cc143;stop-opacity:1;" id="stop3793"/>
   <stop offset="0.96929997" style="stop-color:#6ab12f;stop-opacity:1;" id="stop18"/>
  </linearGradient>
 </defs>
 <g id="DO_NOT_EDIT_-_BOUNDING_BOX">
  <rect width="67" fill="none" height="57" id="BOUNDING_BOX"/>
 </g>
 <path style="opacity:0.3" id="path3853" d="m 56.5,24.775 c 0,-0.865 -0.702,-1.553 -1.572,-1.576 h -0.016 c -0.007,0 -0.013,-0.005 -0.02,-0.005 -0.01,0 -0.016,0.005 -0.022,0.005 L 39.712,23.204 35.022,9.021 C 34.807,8.397 34.223,7.937 33.513,7.937 c -0.696,0 -1.276,0.446 -1.498,1.059 H 31.99 L 27.292,23.204 12.249,23.2 12.242,23.218 c -0.051,0 -0.09,-0.022 -0.138,-0.022 -0.886,0 -1.604,0.706 -1.604,1.581 0,0.625 0.379,1.16 0.924,1.415 l -0.013,0.027 12.046,8.573 -4.643,14.001 c -0.106,0.217 -0.18,0.441 -0.18,0.699 0,0.868 0.719,1.572 1.604,1.572 0.351,0 0.655,-0.132 0.918,-0.321 l 0.017,0.01 12.327,-8.795 12.106,8.64 c 0.013,0.013 0.032,0.019 0.045,0.03 l 0.106,0.072 h 0.003 c 0.276,0.213 0.606,0.362 0.985,0.362 0.889,0 1.61,-0.704 1.61,-1.572 0,-0.142 -0.048,-0.263 -0.08,-0.393 l 0.01,-0.005 -0.035,-0.107 c -0.017,-0.05 -0.026,-0.104 -0.049,-0.153 L 43.547,34.79 55.808,26.063 55.801,26.041 C 56.215,25.755 56.5,25.306 56.5,24.775 z"/>
 <rect width="30" x="16.381001" y="16.445999" height="30" style="fill:none" id="rect3855"/>
 <path style="opacity:0.15" id="path3857" d="m 46.746,51.063 c -0.538,0 -1.069,-0.183 -1.54,-0.528 -0.004,-0.002 -0.181,-0.122 -0.181,-0.122 L 33.5,42.187 21.753,50.566 c -0.06,0.043 -0.124,0.078 -0.191,0.106 -0.418,0.26 -0.863,0.391 -1.324,0.391 -1.436,0 -2.604,-1.154 -2.604,-2.572 0,-0.358 0.082,-0.71 0.25,-1.073 L 22.275,34.178 10.831,26.033 C 10.796,26.009 10.764,25.982 10.734,25.954 9.966,25.485 9.5,24.674 9.5,23.775 c 0,-1.423 1.168,-2.581 2.604,-2.581 0.027,0 0.145,0.005 0.145,0.005 L 26.568,21.204 31.04,7.683 c 0.032,-0.097 0.078,-0.187 0.135,-0.267 0.429,-0.894 1.338,-1.478 2.337,-1.478 1.105,0 2.092,0.707 2.454,1.759 L 40.434,21.205 54.797,21.2 c 0.032,-0.003 0.064,-0.005 0.096,-0.005 0.047,0 0.095,0.003 0.144,0.011 1.407,0.096 2.464,1.202 2.464,2.57 0,0.755 -0.34,1.452 -0.941,1.946 -0.05,0.059 -0.107,0.111 -0.171,0.157 l -11.659,8.298 4.412,13.309 c 0.023,0.059 0.042,0.119 0.059,0.181 l 0.037,0.116 c 0.021,0.063 0.035,0.127 0.043,0.191 0.042,0.157 0.077,0.32 0.077,0.517 -0.002,1.417 -1.172,2.572 -2.612,2.572 z"/>
 <path style="opacity:0.15" id="path3859" d="m 56.5,23.775 c 0,-0.865 -0.702,-1.553 -1.572,-1.576 h -0.016 c -0.007,0 -0.013,-0.005 -0.02,-0.005 -0.01,0 -0.016,0.005 -0.022,0.005 L 39.712,22.204 35.022,8.021 C 34.807,7.397 34.223,6.937 33.513,6.937 c -0.696,0 -1.276,0.446 -1.498,1.059 H 31.99 L 27.292,22.204 12.249,22.2 12.242,22.218 c -0.051,0 -0.09,-0.022 -0.138,-0.022 -0.886,0 -1.604,0.706 -1.604,1.581 0,0.625 0.379,1.16 0.924,1.415 l -0.013,0.027 12.046,8.573 -4.643,14.001 c -0.106,0.217 -0.18,0.441 -0.18,0.699 0,0.868 0.719,1.572 1.604,1.572 0.351,0 0.655,-0.132 0.918,-0.321 l 0.017,0.01 12.327,-8.795 12.106,8.64 c 0.013,0.013 0.032,0.019 0.045,0.03 l 0.106,0.072 h 0.003 c 0.276,0.213 0.606,0.362 0.985,0.362 0.889,0 1.61,-0.704 1.61,-1.572 0,-0.142 -0.048,-0.263 -0.08,-0.393 l 0.01,-0.005 -0.035,-0.107 c -0.017,-0.05 -0.026,-0.104 -0.049,-0.153 L 43.547,33.79 55.808,25.063 55.801,25.041 C 56.215,24.755 56.5,24.306 56.5,23.775 z"/>
 <path style="fill:url(#linearGradient4440);fill-opacity:1.0" id="path3868" d="m 56.5,23.775 c 0,-0.865 -0.702,-1.553 -1.572,-1.576 h -0.016 c -0.007,0 -0.013,-0.005 -0.02,-0.005 -0.01,0 -0.016,0.005 -0.022,0.005 L 39.712,22.204 35.022,8.021 C 34.807,7.397 34.223,6.937 33.513,6.937 c -0.696,0 -1.276,0.446 -1.498,1.059 H 31.99 L 27.292,22.204 12.249,22.2 12.242,22.218 c -0.051,0 -0.09,-0.022 -0.138,-0.022 -0.886,0 -1.604,0.706 -1.604,1.581 0,0.625 0.379,1.16 0.924,1.415 l -0.013,0.027 12.046,8.573 -4.643,14.001 c -0.106,0.217 -0.18,0.441 -0.18,0.699 0,0.868 0.719,1.572 1.604,1.572 0.351,0 0.655,-0.132 0.918,-0.321 l 0.017,0.01 12.327,-8.795 12.106,8.64 c 0.013,0.013 0.032,0.019 0.045,0.03 l 0.106,0.072 h 0.003 c 0.276,0.213 0.606,0.362 0.985,0.362 0.889,0 1.61,-0.704 1.61,-1.572 0,-0.142 -0.048,-0.263 -0.08,-0.393 l 0.01,-0.005 -0.035,-0.107 c -0.017,-0.05 -0.026,-0.104 -0.049,-0.153 L 43.547,33.79 55.808,25.063 55.801,25.041 C 56.215,24.755 56.5,24.306 56.5,23.775 z"/>
 <path style="fill:#666666" id="path3870" d="m 18.814,48.791 c -0.034,0.07 -0.058,0.144 -0.084,0.216 -0.058,-0.163 -0.096,-0.335 -0.096,-0.517 0,-0.258 0.073,-0.482 0.18,-0.699 l 4.375,-13.191 0.268,0.19 -4.643,14.001 z m -6.71,-25.596 c 0.048,0 0.087,0.022 0.138,0.022 l 0.007,-0.018 15.042,0.005 4.698,-14.208 h 0.025 c 0.222,-0.613 0.802,-1.059 1.498,-1.059 0.71,0 1.294,0.46 1.509,1.084 L 39.711,23.204 54.87,23.2 c 0.007,0 0.013,-0.005 0.022,-0.005 0.007,0 0.013,0.005 0.02,0.005 h 0.016 c 0.688,0.018 1.264,0.454 1.478,1.061 0.056,-0.152 0.095,-0.312 0.095,-0.485 0,-0.865 -0.702,-1.553 -1.572,-1.576 h -0.016 c -0.007,0 -0.013,-0.005 -0.02,-0.005 -0.01,0 -0.016,0.005 -0.022,0.005 L 39.713,22.205 35.023,8.022 C 34.808,7.398 34.224,6.938 33.514,6.938 c -0.696,0 -1.276,0.446 -1.498,1.059 H 31.991 L 27.293,22.205 12.249,22.2 12.242,22.218 c -0.051,0 -0.09,-0.022 -0.138,-0.022 -0.886,0 -1.604,0.706 -1.604,1.581 0,0.175 0.036,0.34 0.091,0.497 0.214,-0.627 0.807,-1.079 1.513,-1.079 z m 36.182,24.898 -0.035,-0.107 c -0.017,-0.05 -0.026,-0.104 -0.049,-0.153 L 43.815,34.6 l -0.269,0.19 4.655,14.042 c 0.022,0.049 0.032,0.104 0.049,0.153 l 0.008,0.024 c 0.06,-0.163 0.098,-0.336 0.098,-0.52 0,-0.142 -0.048,-0.263 -0.08,-0.393 l 0.01,-0.003 z"/>
 <g id="DO_NOT_EDIT_-_FOCAL_ZONE_GUIDES"/>
</svg>
