<?xml version="1.0"?>
<!-- Converted with SVG Converter - Version 0.9.5 (Compiled Mon May 30 09:08:51 2011) - Copyright (C) 2011 Nokia -->
<svg xmlns="http://www.w3.org/2000/svg" width="67px" x="0px" y="0px" version="1.1" viewBox="0 0 67 57" height="57px" xmlns:xlink="http://www.w3.org/1999/xlink" baseProfile="tiny" id="svg2" xml:space="preserve">
 <metadata id="metadata40"/>
 <defs id="defs4">
  <linearGradient id="linearGradient3785" y1="51.5" y2="5.5005" x1="33.5005" x2="33.5005" gradientUnits="userSpaceOnUse">
   <stop offset="0" style="stop-color:#D0CBC5" id="stop3787"/>
   <stop offset="0.5031" style="stop-color:#FAFCEF" id="stop3789"/>
   <stop offset="0.9693" style="stop-color:#FFFFFF" id="stop3791"/>
  </linearGradient>
 </defs>
 <rect width="67" fill="none" height="57" id="BOUNDING_BOX_1_"/>
 <path stroke-opacity="0.3" fill-opacity="0.3" id="path7" d="M19.069,52.5h28.863l1.804-34.274H17.265L19.069,52.5z M38.912,25.441c0-0.997,0.807-1.804,1.804-1.804  s1.804,0.807,1.804,1.804V43.48c0,0.997-0.807,1.804-1.804,1.804s-1.804-0.807-1.804-1.804V25.441z M31.696,25.441  c0-0.997,0.807-1.804,1.804-1.804s1.804,0.807,1.804,1.804V43.48c0,0.997-0.807,1.804-1.804,1.804s-1.804-0.807-1.804-1.804V25.441z   M24.48,25.441c0-0.997,0.807-1.804,1.804-1.804s1.804,0.807,1.804,1.804V43.48c0,0.997-0.807,1.804-1.804,1.804  s-1.804-0.807-1.804-1.804V25.441z M49.735,11.01h-9.922V9.206c0-1.491-1.212-2.706-2.706-2.706h-7.215  c-1.491,0-2.706,1.215-2.706,2.706v1.804h-9.922c-0.997,0-1.804,0.809-1.804,1.804v1.804h36.078v-1.804  C51.539,11.818,50.729,11.01,49.735,11.01z M37.107,11.01h-7.215V9.206h7.215V11.01z"/>
 <path stroke-opacity="0.15" fill-opacity="0.15" id="path9" d="M19.069,52.5c-0.532,0-0.971-0.416-0.999-0.947l-1.804-34.274c-0.015-0.274,0.084-0.542,0.273-0.741  c0.189-0.199,0.451-0.312,0.726-0.312h32.471c0.274,0,0.537,0.113,0.726,0.312c0.188,0.199,0.287,0.467,0.273,0.741l-1.804,34.274  c-0.028,0.531-0.467,0.947-0.999,0.947H19.069z M40.716,23.638c-0.443,0-0.804,0.36-0.804,0.804V42.48  c0,0.443,0.36,0.804,0.804,0.804s0.804-0.36,0.804-0.804V24.441C41.52,23.998,41.159,23.638,40.716,23.638z M33.5,23.638  c-0.443,0-0.804,0.36-0.804,0.804V42.48c0,0.443,0.36,0.804,0.804,0.804s0.804-0.36,0.804-0.804V24.441  C34.304,23.998,33.943,23.638,33.5,23.638z M26.284,23.638c-0.443,0-0.804,0.36-0.804,0.804V42.48c0,0.443,0.36,0.804,0.804,0.804  s0.804-0.36,0.804-0.804V24.441C27.088,23.998,26.728,23.638,26.284,23.638z M15.461,14.618c-0.552,0-1-0.448-1-1v-1.804  c0-1.546,1.258-2.804,2.804-2.804h8.922V8.206c0-2.043,1.663-3.706,3.706-3.706h7.215c2.044,0,3.706,1.663,3.706,3.706V9.01h8.922  c1.546,0,2.804,1.258,2.804,2.804v1.804c0,0.552-0.447,1-1,1H15.461z"/>
 <path stroke-opacity="0.15" fill-opacity="0.15" id="path11" d="M19.069,51.5h28.863l1.804-34.274H17.265L19.069,51.5z M38.912,24.441c0-0.997,0.807-1.804,1.804-1.804  s1.804,0.807,1.804,1.804V42.48c0,0.997-0.807,1.804-1.804,1.804s-1.804-0.807-1.804-1.804V24.441z M31.696,24.441  c0-0.997,0.807-1.804,1.804-1.804s1.804,0.807,1.804,1.804V42.48c0,0.997-0.807,1.804-1.804,1.804s-1.804-0.807-1.804-1.804V24.441z   M24.48,24.441c0-0.997,0.807-1.804,1.804-1.804s1.804,0.807,1.804,1.804V42.48c0,0.997-0.807,1.804-1.804,1.804  s-1.804-0.807-1.804-1.804V24.441z M49.735,10.01h-9.922V8.206c0-1.491-1.212-2.706-2.706-2.706h-7.215  c-1.491,0-2.706,1.215-2.706,2.706v1.804h-9.922c-0.997,0-1.804,0.809-1.804,1.804v1.804h36.078v-1.804  C51.539,10.818,50.729,10.01,49.735,10.01z M37.107,10.01h-7.215V8.206h7.215V10.01z"/>
 <path fill="url(#SVGID_1_)" style="fill-opacity:1.0" id="path20" d="M19.069,51.5h28.863l1.804-34.274H17.265L19.069,51.5z M38.912,24.441  c0-0.997,0.807-1.804,1.804-1.804s1.804,0.807,1.804,1.804V42.48c0,0.997-0.807,1.804-1.804,1.804s-1.804-0.807-1.804-1.804V24.441z   M31.696,24.441c0-0.997,0.807-1.804,1.804-1.804s1.804,0.807,1.804,1.804V42.48c0,0.997-0.807,1.804-1.804,1.804  s-1.804-0.807-1.804-1.804V24.441z M24.48,24.441c0-0.997,0.807-1.804,1.804-1.804s1.804,0.807,1.804,1.804V42.48  c0,0.997-0.807,1.804-1.804,1.804s-1.804-0.807-1.804-1.804V24.441z M49.735,10.01h-9.922V8.206c0-1.491-1.212-2.706-2.706-2.706  h-7.215c-1.491,0-2.706,1.215-2.706,2.706v1.804h-9.922c-0.997,0-1.804,0.809-1.804,1.804v1.804h36.078v-1.804  C51.539,10.818,50.729,10.01,49.735,10.01z M37.107,10.01h-7.215V8.206h7.215V10.01z"/>
 <linearGradient id="SVGID_1_" y1="51.5" x1="33.5005" y2="5.5005002" gradientUnits="userSpaceOnUse" x2="33.5005">
  <stop offset="0" style="stop-color:#61744b;stop-opacity:1;" id="stop14"/>
  <stop offset="0.50309998" style="stop-color:#8fd257;stop-opacity:1;" id="stop16"/>
  <stop offset="0.60000002" style="stop-color:#7cc143;stop-opacity:1;" id="stop3793"/>
  <stop offset="0.96929997" style="stop-color:#6ab12f;stop-opacity:1;" id="stop18"/>
  <stop offset="0" style="stop-color:#D0CBC5" id="stop3787"/>
  <stop offset="0.5031" style="stop-color:#FAFCEF" id="stop3789"/>
  <stop offset="0.9693" style="stop-color:#FFFFFF" id="stop3791"/>
 </linearGradient>
 <path fill="#FFFFFF" style="fill:#666666" id="path22" d="M26.284,45.284c0.997,0,1.804-0.807,1.804-1.804v-1c0,0.997-0.807,1.804-1.804,1.804  s-1.804-0.807-1.804-1.804v1C24.48,44.478,25.287,45.284,26.284,45.284z"/>
 <rect width="7.215" x="29.893" y="10.01" fill="#FFFFFF" height="1" style="fill:#666666" id="rect24"/>
 <path fill="#FFFFFF" style="fill:#666666" id="path26" d="M29.893,6.5h7.215c1.494,0,2.706,1.215,2.706,2.706v-1c0-1.491-1.212-2.706-2.706-2.706h-7.215  c-1.491,0-2.706,1.215-2.706,2.706v1C27.187,7.715,28.401,6.5,29.893,6.5z"/>
 <path fill="#FFFFFF" style="fill:#666666" id="path28" d="M17.265,11.01h9.922v-1h-9.922c-0.997,0-1.804,0.809-1.804,1.804v1C15.461,11.818,16.268,11.01,17.265,11.01  z"/>
 <path fill="#FFFFFF" style="fill:#666666" id="path30" d="M33.5,45.284c0.997,0,1.804-0.807,1.804-1.804v-1c0,0.997-0.807,1.804-1.804,1.804s-1.804-0.807-1.804-1.804  v1C31.696,44.478,32.503,45.284,33.5,45.284z"/>
 <polygon fill="#FFFFFF" points="17.317,18.226 49.683,18.226 49.735,17.226 17.265,17.226 " style="fill:#666666" id="polygon32"/>
 <path fill="#FFFFFF" style="fill:#666666" id="path34" d="M49.735,10.01h-9.922v1h9.922c0.993,0,1.804,0.809,1.804,1.804v-1C51.539,10.818,50.729,10.01,49.735,10.01z  "/>
 <path fill="#FFFFFF" style="fill:#666666" id="path36" d="M40.716,45.284c0.997,0,1.804-0.807,1.804-1.804v-1c0,0.997-0.807,1.804-1.804,1.804  s-1.804-0.807-1.804-1.804v1C38.912,44.478,39.719,45.284,40.716,45.284z"/>
</svg>
