<?xml version="1.0" encoding="UTF-8" standalone="no"?>
<!-- Created with Inkscape (http://www.inkscape.org/) -->

<svg
   xmlns:dc="http://purl.org/dc/elements/1.1/"
   xmlns:cc="http://creativecommons.org/ns#"
   xmlns:rdf="http://www.w3.org/1999/02/22-rdf-syntax-ns#"
   xmlns:svg="http://www.w3.org/2000/svg"
   xmlns="http://www.w3.org/2000/svg"
   xmlns:sodipodi="http://sodipodi.sourceforge.net/DTD/sodipodi-0.dtd"
   xmlns:inkscape="http://www.inkscape.org/namespaces/inkscape"
   width="48px"
   height="48px"
   id="svg4181"
   version="1.1"
   inkscape:version="0.48.0 r9654"
   sodipodi:docname="notebook.svg">
  <defs
     id="defs4183" />
  <sodipodi:namedview
     id="base"
     pagecolor="#ffffff"
     bordercolor="#666666"
     borderopacity="1.0"
     inkscape:pageopacity="0.0"
     inkscape:pageshadow="2"
     inkscape:zoom="4.9497475"
     inkscape:cx="24"
     inkscape:cy="6.654092"
     inkscape:current-layer="layer1"
     showgrid="true"
     inkscape:grid-bbox="true"
     inkscape:document-units="px"
     inkscape:window-width="1138"
     inkscape:window-height="715"
     inkscape:window-x="88"
     inkscape:window-y="88"
     inkscape:window-maximized="0" />
  <metadata
     id="metadata4186">
    <rdf:RDF>
      <cc:Work
         rdf:about="">
        <dc:format>image/svg+xml</dc:format>
        <dc:type
           rdf:resource="http://purl.org/dc/dcmitype/StillImage" />
        <dc:title />
      </cc:Work>
    </rdf:RDF>
  </metadata>
  <g
     id="layer1"
     inkscape:label="Layer 1"
     inkscape:groupmode="layer">
    <path
       id="rect4163"
       style="fill:#0000ff;fill-opacity:1;stroke:none"
       d="m 37.691981,10.916842 1.286624,-0.708148 0.0197,31.38612 -1.30632,0.867225 z M 9.912074,6.2918262 c 0.09051,-1.6416866 1.420883,-2.6759423 4.316595,-2.2312484 L 37.695043,10.914603 39,10.191391 15.244968,3.1618263 C 12.009225,2.5666398 9.009122,3.61254 9,6.3112123 z M 9,6.28125 9.09375,36.5625 c 0.371198,1.264632 0.146729,1.623563 2.46875,2.625 L 32.5,45 l 0,-30.53125 -5.71875,-1.59375 2.125,0.625 0.03125,20.5 -5.28125,-7.65625 -4.6875,4.71875 -0.0625,-20.375 -6.375,-1.78125 C 10.46619,8.5508205 10.051737,7.4262599 9.9375,6.28125 l -0.9375,0 z" />
  </g>
</svg>
