<?xml version="1.0"?>
<!-- Converted with SVG Converter - Version 0.9.5 (Compiled Mon May 30 09:08:51 2011) - Copyright (C) 2011 Nokia -->
<svg xmlns="http://www.w3.org/2000/svg" width="30" version="1.1" height="30" xmlns:xlink="http://www.w3.org/1999/xlink" baseProfile="tiny" id="svg2">
 <metadata id="metadata7"/>
 <g id="layer1" transform="translate(-344.2661,-511.59957)">
  <path style="fill:#ffffff;fill-opacity:0;stroke:#696969;stroke-width:1.84461355000000000px;stroke-linecap:butt;stroke-linejoin:miter;stroke-opacity:1" id="path4107" d="m 347.30345,521.71678 5.52173,-0.11157 7.47734,-7.14125 0,24.2133 -7.36231,-6.47178 -5.7518,-0.11156 z"/>
  <path style="fill:none;stroke:#696969;stroke-width:7.93492602999999970;stroke-linecap:butt;stroke-linejoin:miter;stroke-miterlimit:4;stroke-opacity:1;stroke-dasharray:none" id="path4145" d="m 59.598999,203.9896  c 7.2497 0.0059 13.1246 8.5971 13.1246 19.1929 c 0.0000 10.5958 -5.8749 19.1870 -13.1246 19.19299" transform="matrix(0.19603833,0,0,0.17347581,351.33067,488.06689)"/>
  <path style="fill:none;stroke:#696969;stroke-width:10.33110046000000000;stroke-linecap:butt;stroke-linejoin:miter;stroke-miterlimit:4;stroke-opacity:1;stroke-dasharray:none" id="path4147" d="m 59.599,176.71547  c 20.0841 0.0000 36.3655 21.2563 36.3655 47.4772 c 0.0000 26.2209 -16.2814 47.4772 -36.3655 47.47724" transform="matrix(0.14381563,0,0,0.13949752,354.68264,495.43185)"/>
  <path style="fill:none;stroke:#696969;stroke-width:10.33110046000000000;stroke-linecap:butt;stroke-linejoin:miter;stroke-miterlimit:4;stroke-opacity:1;stroke-dasharray:none" id="path4149" d="m 59.599,156.51242  c 31.7944 0.0091 57.5647 30.3079 57.5647 67.6802 c 0.0000 37.3723 -25.7703 67.6711 -57.5647 67.68024" transform="matrix(0.14381563,0,0,0.13949752,354.68264,495.43185)"/>
 </g>
</svg>
