<?xml version="1.0"?>
<!-- Converted with SVG Converter - Version 0.9.5 (Compiled Mon May 30 09:08:51 2011) - Copyright (C) 2011 Nokia -->
<svg xmlns="http://www.w3.org/2000/svg" width="48px" version="1.1" height="48px" xmlns:xlink="http://www.w3.org/1999/xlink" baseProfile="tiny" id="svg4140">
 <defs id="defs4142">
  <linearGradient id="linearGradient3762">
   <stop offset="0" style="stop-color:#aaaaaa;stop-opacity:1;" id="stop3764"/>
   <stop offset="0.75" style="stop-color:#2b2b2b;stop-opacity:1;" id="stop3766"/>
   <stop offset="1" style="stop-color:#1b1b1b;stop-opacity:1;" id="stop3768"/>
  </linearGradient>
  <linearGradient id="linearGradient3019">
   <stop offset="0" style="stop-color:#aaaaaa;stop-opacity:1;" id="stop3021"/>
   <stop offset="0.75" style="stop-color:#ffffff;stop-opacity:1;" id="stop3023"/>
   <stop offset="1" style="stop-color:#ffffff;stop-opacity:1;" id="stop3025"/>
  </linearGradient>
  <linearGradient id="linearGradient2989" y1="-8.221694" x1="12.111917" y2="35.995396" x2="0.26398259" gradientUnits="userSpaceOnUse">
   <stop offset="0" style="stop-color:#767676;stop-opacity:1;" id="stop2985"/>
   <stop offset="0.5" style="stop-color:#ffffff;stop-opacity:1;" id="stop3017"/>
   <stop offset="1" style="stop-color:#ffffff;stop-opacity:1;" id="stop2987"/>
  </linearGradient>
  <linearGradient id="linearGradient2983">
   <stop offset="0" style="stop-color:#767676;stop-opacity:1;" id="stop2985"/>
   <stop offset="0.5" style="stop-color:#ffffff;stop-opacity:1;" id="stop3017"/>
   <stop offset="1" style="stop-color:#ffffff;stop-opacity:1;" id="stop2987"/>
  </linearGradient>
  <linearGradient gradientTransform="translate(-38.428571,-3.1428571)" id="linearGradient3018" y1="-8.221694" y2="35.995396" x1="12.111917" x2="0.26398259" gradientUnits="userSpaceOnUse">
   <stop offset="0" style="stop-color:#767676;stop-opacity:1;" id="stop2985"/>
   <stop offset="0.5" style="stop-color:#ffffff;stop-opacity:1;" id="stop3017"/>
   <stop offset="1" style="stop-color:#ffffff;stop-opacity:1;" id="stop2987"/>
  </linearGradient>
  <linearGradient id="linearGradient3037" y1="43.753803" x1="4.1534061" y2="3.7492244" x2="4.1534061" gradientUnits="userSpaceOnUse">
   <stop offset="0" style="stop-color:#aaaaaa;stop-opacity:1;" id="stop3764"/>
   <stop offset="0.75" style="stop-color:#2b2b2b;stop-opacity:1;" id="stop3766"/>
   <stop offset="1" style="stop-color:#1b1b1b;stop-opacity:1;" id="stop3768"/>
  </linearGradient>
 </defs>
 <metadata id="metadata4145"/>
 <g id="layer1">
  <path style="fill:url(#linearGradient3037);fill-opacity:1.0;stroke:none" id="path3111" d="M 19.932339,3.9999996 4,4.1249913 4.1249595,20.186424 26.898832,42.747426 c 1.620915,1.606603 4.10666,1.677394 5.591939,0.15624 l 10.46536,-10.686791 c 1.485309,-1.52108 1.370976,-4.04929 -0.249919,-5.655874 L 19.932339,3.9999996 z m -8.341048,4.2809653 c 0.86474,-0.0071 1.740316,0.3094166 2.405471,0.9686858 1.330319,1.3185693 1.339986,3.5031193 0.03119,4.8434273 -1.308756,1.340288 -3.449383,1.349783 -4.7797024,0.03125 C 7.9179206,12.805754 7.9082937,10.652433 9.2170597,9.3121465 9.8714378,8.642002 10.726561,8.2880824 11.591291,8.2809649 z m 10.37164,6.7183031 14.339105,14.186559 -0.874716,0.906189 -14.339105,-14.186559 0.874716,-0.906189 z m -2.999028,2.999801 14.339105,14.186558 -0.874717,0.90619 -14.339105,-14.186558 0.874717,-0.90619 z m -3.061509,2.937305 7.216413,7.124527 -0.874717,0.90619 -7.247652,-7.124527 0.905956,-0.90619 z"/>
 </g>
</svg>
