<?xml version="1.0"?>
<!-- Converted with SVG Converter - Version 0.9.5 (Compiled Mon May 30 09:08:51 2011) - Copyright (C) 2011 Nokia -->
<svg xmlns="http://www.w3.org/2000/svg" width="40" x="0px" y="0px" version="1.1" viewBox="0 0 40 40" height="40" xmlns:xlink="http://www.w3.org/1999/xlink" baseProfile="tiny" id="svg2" xml:space="preserve">
 <metadata id="metadata23"/>
 <defs id="defs21">
  <linearGradient id="linearGradient11258">
   <stop offset="0" style="stop-color:#000000;stop-opacity:1;" id="stop11260"/>
   <stop offset="0.78629702" style="stop-color:#231f20;stop-opacity:1;" id="stop11266"/>
   <stop offset="1" style="stop-color:#4b4a4c;stop-opacity:1;" id="stop11262"/>
  </linearGradient>
  <linearGradient id="linearGradient11264" y1="-0.038218692" x1="30.570343" y2="33.259216" x2="30.570343" gradientUnits="userSpaceOnUse">
   <stop offset="0" style="stop-color:#000000;stop-opacity:1;" id="stop11260"/>
   <stop offset="0.78629702" style="stop-color:#231f20;stop-opacity:1;" id="stop11266"/>
   <stop offset="1" style="stop-color:#4b4a4c;stop-opacity:1;" id="stop11262"/>
  </linearGradient>
 </defs>
 <g id="g11268" transform="translate(0,-0.4)">
  <path style="fill:#ffffff" id="path7" d="M 26.364285,26.054546 21.2918,21.002109 c -0.191228,-0.189491 -0.505672,-0.189491 -0.6969,0 l -5.073472,5.052437 -3.101057,-3.0888 c -0.191228,-0.189491 -0.505671,-0.189491 -0.6969,0 l -4.0877567,4.070618 v 3.927273 H 26.364285 V 26.054546 z M 28.828572,14.763637 H 5.1714285 c -0.5421428,0 -0.9857142,0.4428 -0.9857142,0.981818 v 17.672728 c 0,0.540981 0.4435714,0.981817 0.9857142,0.981817 H 28.828572 c 0.542143,0 0.985713,-0.440836 0.985713,-0.981817 V 15.745455 c 0,-0.539018 -0.44357,-0.981818 -0.985713,-0.981818 z M 27.842857,32.436364 H 6.1571428 V 16.727274 H 27.842857 v 15.70909 z"/>
  <path style="fill:#ffffff" id="path9" d="m 31.16,4.4 c -0.6636,0 -1.2,0.5364 -1.2,1.2 l 0,3.6 -3.6,0 c -0.6636,0 -1.2,0.5364 -1.2,1.2 0,0.6636 0.5364,1.2 1.2,1.2 l 3.6,0 0,3.6 c 0,0.6636 0.5364,1.2 1.2,1.2 0.6636,0 1.2,-0.5364 1.2,-1.2 l 0,-3.6 3.6,0 c 0.6636,0 1.2,-0.5364 1.2,-1.2 0,-0.6636 -0.5364,-1.2 -1.2,-1.2 l -3.6,0 0,-3.6 c 0,-0.6636 -0.5364,-1.2 -1.2,-1.2 z"/>
 </g>
 <path style="fill:url(#linearGradient11264);fill-opacity:1" id="path13-3" d="M 31.15625 3.1875 C 30.49265 3.1875 29.96875 3.74265 29.96875 4.40625 L 29.96875 8 L 26.375 8 C 25.7114 8 25.15625 8.5239 25.15625 9.1875 C 25.15625 9.8511 25.7114 10.40625 26.375 10.40625 L 29.96875 10.40625 L 29.96875 14 C 29.96875 14.6636 30.49265 15.1875 31.15625 15.1875 C 31.81985 15.1875 32.375 14.6636 32.375 14 L 32.375 10.40625 L 35.96875 10.40625 C 36.63235 10.40625 37.15625 9.8511 37.15625 9.1875 C 37.15625 8.5239 36.63235 8 35.96875 8 L 32.375 8 L 32.375 4.40625 C 32.375 3.74265 31.81985 3.1875 31.15625 3.1875 z M 5.15625 13.5625 C 4.6141072 13.5625 4.1875 13.992232 4.1875 14.53125 L 4.1875 32.21875 C 4.1875 32.759732 4.6141072 33.1875 5.15625 33.1875 L 28.84375 33.1875 C 29.385893 33.1875 29.8125 32.759732 29.8125 32.21875 L 29.8125 14.53125 C 29.8125 13.992232 29.385893 13.5625 28.84375 13.5625 L 5.15625 13.5625 z M 6.15625 15.53125 L 27.84375 15.53125 L 27.84375 31.25 L 6.15625 31.25 L 6.15625 15.53125 z M 20.9375 19.65625 C 20.811082 19.65625 20.689364 19.717755 20.59375 19.8125 L 15.53125 24.84375 L 12.40625 21.78125 C 12.215022 21.591759 11.909979 21.591759 11.71875 21.78125 L 7.625 25.84375 L 7.625 29.75 L 26.375 29.75 L 26.375 24.84375 L 21.28125 19.8125 C 21.185636 19.717754 21.063918 19.65625 20.9375 19.65625 z "/>
 <g id="DO_NOT_EDIT_-_BOUNDING_BOX" transform="matrix(1.2,0,0,1.2,2,2)">
  <rect width="30" x="0" y="0" height="30" style="fill:none" id="BOUNDING_BOX"/>
 </g>
 <rect width="36" x="2" y="2" height="36" style="fill:none" id="rect17"/>
</svg>
