<?xml version="1.0"?>
<!-- Converted with SVG Converter - Version 0.9.5 (Compiled Mon May 30 09:08:51 2011) - Copyright (C) 2011 Nokia -->
<svg xmlns="http://www.w3.org/2000/svg" width="30px" x="0px" y="0px" version="1.1" viewBox="0 0 30 30" height="30px" baseProfile="tiny" xmlns:xlink="http://www.w3.org/1999/xlink" id="svg2" xml:space="preserve">
 <metadata id="metadata23"/>
 <defs id="defs21"/>
 <g id="g3057" transform="matrix(0.88461538,0,0,0.88111888,-0.76923079,3.20979)">
  <g id="PLACE_YOUR_GRAPHIC_HERE" transform="matrix(0.92857143,0,0,0.92857143,1.0714286,1.9285717)">
   <path style="opacity:0.3" id="path7" d="m 24.5,16.5 -5.146,-5.146 c -0.194,-0.193 -0.513,-0.193 -0.707,0 L 13.5,16.5 10.354,13.354 c -0.194,-0.193 -0.513,-0.193 -0.707,0 L 5.5,17.5 v 4 h 19 v -5 z M 27,5 H 3 C 2.45,5 2,5.451 2,6 v 18 c 0,0.551 0.45,1 1,1 h 24 c 0.55,0 1,-0.449 1,-1 V 6 C 28,5.451 27.55,5 27,5 z M 26,23 H 4 V 7 h 22 v 16 z"/>
   <path style="opacity:0.15" id="path9-1" d="M 3,27 C 1.897,27 1,26.103 1,25 V 7 C 1,5.897 1.897,5 3,5 h 24 c 1.103,0 2,0.897 2,2 v 18 c 0,1.103 -0.897,2 -2,2 H 3 z"/>
   <path style="opacity:0.15" id="path11-0" d="m 24.5,17.5 -5.146,-5.146 c -0.194,-0.193 -0.513,-0.193 -0.707,0 L 13.5,17.5 10.354,14.354 c -0.194,-0.193 -0.513,-0.193 -0.707,0 L 5.5,18.5 v 4 h 19 v -5 z M 27,6 H 3 C 2.45,6 2,6.451 2,7 v 18 c 0,0.551 0.45,1 1,1 h 24 c 0.55,0 1,-0.449 1,-1 V 7 C 28,6.451 27.55,6 27,6 z M 26,24 H 4 V 8 h 22 v 16 z"/>
   <path style="fill:#ffffff" id="path13-3" d="m 24.5,17.5 -5.146,-5.146 c -0.194,-0.193 -0.513,-0.193 -0.707,0 L 13.5,17.5 10.354,14.354 c -0.194,-0.193 -0.513,-0.193 -0.707,0 L 5.5,18.5 v 4 h 19 v -5 z M 27,6 H 3 C 2.45,6 2,6.451 2,7 v 18 c 0,0.551 0.45,1 1,1 h 24 c 0.55,0 1,-0.449 1,-1 V 7 C 28,6.451 27.55,6 27,6 z M 26,24 H 4 V 8 h 22 v 16 z"/>
  </g>
 </g>
 <g id="DO_NOT_EDIT_-_BOUNDING_BOX">
  <rect width="30" fill="none" height="30" id="BOUNDING_BOX"/>
 </g>
 <g id="g3031">
  <path style="opacity:0.3" id="path9" d="M 24 0 C 23.447 0 23 0.447 23 1 L 23 4 L 20 4 C 19.447 4 19 4.447 19 5 C 19 5.553 19.447 6 20 6 L 23 6 L 23 9 C 23 9.553 23.447 10 24 10 C 24.553 10 25 9.553 25 9 L 25 6 L 28 6 C 28.553 6 29 5.553 29 5 C 29 4.447 28.553 4 28 4 L 25 4 L 25 1 C 25 0.447 24.553 0 24 0 z "/>
  <path style="opacity:0.15" id="path11" d="M 24 0 C 22.897 0 22 0.897 22 2 L 22 4 L 20 4 C 18.897 4 18 4.897 18 6 C 18 7.103 18.897 8 20 8 L 22 8 L 22 10 C 22 11.103 22.897 12 24 12 C 25.103 12 26 11.103 26 10 L 26 8 L 28 8 C 29.103 8 30 7.103 30 6 C 30 4.897 29.103 4 28 4 L 26 4 L 26 2 C 26 0.897 25.103 -8.5582583e-018 24 0 z "/>
  <path style="opacity:0.15" id="path13" d="M 24 1 C 23.447 1 23 1.447 23 2 L 23 5 L 20 5 C 19.447 5 19 5.447 19 6 C 19 6.553 19.447 7 20 7 L 23 7 L 23 10 C 23 10.553 23.447 11 24 11 C 24.553 11 25 10.553 25 10 L 25 7 L 28 7 C 28.553 7 29 6.553 29 6 C 29 5.447 28.553 5 28 5 L 25 5 L 25 2 C 25 1.447 24.553 1 24 1 z "/>
  <path style="fill:#ffffff" id="path15" d="M 24 1 C 23.447 1 23 1.447 23 2 L 23 5 L 20 5 C 19.447 5 19 5.447 19 6 C 19 6.553 19.447 7 20 7 L 23 7 L 23 10 C 23 10.553 23.447 11 24 11 C 24.553 11 25 10.553 25 10 L 25 7 L 28 7 C 28.553 7 29 6.553 29 6 C 29 5.447 28.553 5 28 5 L 25 5 L 25 2 C 25 1.447 24.553 1 24 1 z "/>
 </g>
 <rect width="30" x="0" y="0" height="30" style="fill:none" id="rect17"/>
</svg>
