<?xml version="1.0" encoding="UTF-8" standalone="no"?>
<!-- Converted with SVG Converter - Version 0.9.5 (Compiled Mon May 30 09:08:51 2011) - Copyright (C) 2011 Nokia -->

<svg
   xmlns:dc="http://purl.org/dc/elements/1.1/"
   xmlns:cc="http://creativecommons.org/ns#"
   xmlns:rdf="http://www.w3.org/1999/02/22-rdf-syntax-ns#"
   xmlns:svg="http://www.w3.org/2000/svg"
   xmlns="http://www.w3.org/2000/svg"
   xmlns:xlink="http://www.w3.org/1999/xlink"
   xmlns:sodipodi="http://sodipodi.sourceforge.net/DTD/sodipodi-0.dtd"
   xmlns:inkscape="http://www.inkscape.org/namespaces/inkscape"
   width="40"
   x="0px"
   y="0px"
   version="1.1"
   viewBox="0 0 40 40"
   height="40"
   id="svg2"
   xml:space="preserve"
   inkscape:version="0.48.0 r9654"
   sodipodi:docname="info_n9_white.svg"
   style="display:inline"><sodipodi:namedview
   pagecolor="#d32c2c"
   bordercolor="#666666"
   borderopacity="1"
   objecttolerance="10"
   gridtolerance="10"
   guidetolerance="10"
   inkscape:pageopacity="0"
   inkscape:pageshadow="2"
   inkscape:window-width="1920"
   inkscape:window-height="1017"
   id="namedview28"
   showgrid="false"
   inkscape:zoom="14.55"
   inkscape:cx="25.410834"
   inkscape:cy="20"
   inkscape:window-x="-8"
   inkscape:window-y="-8"
   inkscape:window-maximized="1"
   inkscape:current-layer="layer1" />
 <metadata
   id="metadata23"><rdf:RDF><cc:Work
       rdf:about=""><dc:format>image/svg+xml</dc:format><dc:type
         rdf:resource="http://purl.org/dc/dcmitype/StillImage" /></cc:Work></rdf:RDF></metadata>
 <defs
   id="defs21"><linearGradient
   id="linearGradient3886"><stop
     style="stop-color:#bfbfbf;stop-opacity:1;"
     offset="0"
     id="stop3888" /><stop
     id="stop3894"
     offset="0.60000002"
     style="stop-color:#dcdcdc;stop-opacity:1;" /><stop
     style="stop-color:#f9f9f9;stop-opacity:1;"
     offset="1"
     id="stop3890" /></linearGradient><linearGradient
   id="linearGradient3878"><stop
     style="stop-color:#ffffff;stop-opacity:1;"
     offset="0"
     id="stop3880" /><stop
     style="stop-color:#ffffff;stop-opacity:0;"
     offset="1"
     id="stop3882" /></linearGradient>
  <linearGradient
   id="linearGradient11258">
   <stop
   offset="0"
   style="stop-color:#000000;stop-opacity:1;"
   id="stop11260" />
   <stop
   offset="0.78629702"
   style="stop-color:#231f20;stop-opacity:1;"
   id="stop11266" />
   <stop
   offset="1"
   style="stop-color:#4b4a4c;stop-opacity:1;"
   id="stop11262" />
  </linearGradient>
  <linearGradient
   gradientTransform="translate(-51.999999,11.999999)"
   id="linearGradient11264"
   y1="-0.038218692"
   x1="30.570343"
   y2="33.259216"
   x2="30.570343"
   gradientUnits="userSpaceOnUse">
   <stop
   offset="0"
   style="stop-color:#000000;stop-opacity:1;"
   id="stop10" />
   <stop
   offset="0.78629702"
   style="stop-color:#231f20;stop-opacity:1;"
   id="stop12" />
   <stop
   offset="1"
   style="stop-color:#4b4a4c;stop-opacity:1;"
   id="stop14" />
  </linearGradient>
  <linearGradient
   id="linearGradient3032"
   y1="0.014148333"
   x1="4.0608368"
   y2="35.855515"
   x2="4.0608368"
   gradientUnits="userSpaceOnUse">
   <stop
   offset="0"
   style="stop-color:#000000;stop-opacity:1;"
   id="stop17" />
   <stop
   offset="0.78629702"
   style="stop-color:#231f20;stop-opacity:1;"
   id="stop19" />
   <stop
   offset="1"
   style="stop-color:#4b4a4c;stop-opacity:1;"
   id="stop21" />
  </linearGradient>
 <linearGradient
   id="linearGradient3032-1"
   y1="0.014148333"
   x1="4.0608368"
   y2="35.855515"
   x2="4.0608368"
   gradientUnits="userSpaceOnUse"><stop
     offset="0"
     style="stop-color:#000000;stop-opacity:1;"
     id="stop17-7" /><stop
     offset="0.78629702"
     style="stop-color:#231f20;stop-opacity:1;"
     id="stop19-4" /><stop
     offset="1"
     style="stop-color:#4b4a4c;stop-opacity:1;"
     id="stop21-0" /></linearGradient><linearGradient
   inkscape:collect="always"
   xlink:href="#linearGradient3886"
   id="linearGradient3892"
   x1="36.164948"
   y1="4.0549827"
   x2="36.164948"
   y2="35.96542"
   gradientUnits="userSpaceOnUse" /></defs>
 <g
   id="DO_NOT_EDIT_-_BOUNDING_BOX-1"
   transform="translate(-52.186312,-3.745247)">
  <rect
   width="30"
   x="0"
   y="0"
   height="30"
   style="fill:none"
   id="BOUNDING_BOX-7" />
 </g>
 
 
 
<g
   inkscape:groupmode="layer"
   id="layer3"
   inkscape:label="Shadow2"
   style="display:inline"
   sodipodi:insensitive="true"><path
     inkscape:connector-curvature="0"
     style="fill:#bfbfbf;fill-opacity:0.74901961;display:inline"
     id="path3036-6"
     d="M 20,3 C 11.163077,3 4,10.163076 4,19 4,27.836923 11.163078,35 20,35 28.836923,35 36,27.836923 36,19 36,10.163076 28.836923,3 20,3 z m 2.461538,27.076923 c 0,0.678154 -0.555077,1.230769 -1.230769,1.230769 h -2.461538 c -0.676924,0 -1.23077,-0.552615 -1.23077,-1.230769 V 19 c 0,-0.675692 -0.553846,-1.230769 -1.230768,-1.230769 h -1.23077 c -0.676923,0 -1.230769,-0.552616 -1.230769,-1.23077 0,-0.675692 0.553846,-1.230768 1.230769,-1.230768 h 6.153846 c 0.675693,0 1.230769,0.555076 1.230769,1.230768 v 13.538462 z m -2.460307,-17.23077 c -1.698462,0 -3.078154,-1.379692 -3.078154,-3.076923 0,-1.697231 1.379692,-3.076922 3.078154,-3.076922 1.698461,0 3.075692,1.379691 3.075692,3.076922 0,1.697231 -1.377231,3.076923 -3.075692,3.076923 z" /></g><g
   inkscape:groupmode="layer"
   id="layer2"
   inkscape:label="Shadow1"
   style="display:inline"
   sodipodi:insensitive="true"><path
     inkscape:connector-curvature="0"
     style="fill:#474445;fill-opacity:0.9372549"
     id="path3036"
     d="M 20,4.9999996 C 11.163077,4.9999996 4,12.163076 4,21 4,29.836923 11.163078,37 20,37 28.836923,37 36,29.836923 36,21 36,12.163076 28.836923,4.9999996 20,4.9999996 z m 2.461538,27.0769234 c 0,0.678154 -0.555077,1.230769 -1.230769,1.230769 h -2.461538 c -0.676924,0 -1.23077,-0.552615 -1.23077,-1.230769 V 21 c 0,-0.675692 -0.553846,-1.230769 -1.230768,-1.230769 h -1.23077 c -0.676923,0 -1.230769,-0.552616 -1.230769,-1.23077 0,-0.675692 0.553846,-1.230768 1.230769,-1.230768 h 6.153846 c 0.675693,0 1.230769,0.555076 1.230769,1.230768 v 13.538462 z m -2.460307,-17.23077 c -1.698462,0 -3.078154,-1.379692 -3.078154,-3.076923 0,-1.697231 1.379692,-3.0769224 3.078154,-3.0769224 1.698461,0 3.075692,1.3796914 3.075692,3.0769224 0,1.697231 -1.377231,3.076923 -3.075692,3.076923 z" /></g><g
   inkscape:groupmode="layer"
   id="layer1"
   inkscape:label="Main"
   style="display:inline"><path
     inkscape:connector-curvature="0"
     style="fill:url(#linearGradient3892);fill-opacity:1"
     id="path3034"
     d="M 20,4 C 11.163077,4 4,11.163077 4,20 4,28.836923 11.163078,36 20,36 28.836923,36 36,28.836923 36,20 36,11.163077 28.836923,4 20,4 z m 2.461538,27.076923 c 0,0.678154 -0.555077,1.230769 -1.230769,1.230769 h -2.461538 c -0.676924,0 -1.23077,-0.552615 -1.23077,-1.230769 V 20 c 0,-0.675692 -0.553846,-1.230769 -1.230768,-1.230769 h -1.23077 c -0.676923,0 -1.230769,-0.552616 -1.230769,-1.23077 0,-0.675692 0.553846,-1.230768 1.230769,-1.230768 h 6.153846 c 0.675693,0 1.230769,0.555076 1.230769,1.230768 V 31.076923 z M 20.001231,13.846154 c -1.698462,0 -3.078154,-1.379692 -3.078154,-3.076923 0,-1.697231 1.379692,-3.076923 3.078154,-3.076923 1.698461,0 3.075692,1.379692 3.075692,3.076923 0,1.697231 -1.377231,3.076923 -3.075692,3.076923 z" /></g></svg>