<?xml version="1.0"?>
<!-- Converted with SVG Converter - Version 0.9.5 (Compiled Mon May 30 09:08:51 2011) - Copyright (C) 2011 Nokia -->
<svg xmlns="http://www.w3.org/2000/svg" width="40" x="0px" y="0px" version="1.1" viewBox="0 0 40 40" height="40" xmlns:xlink="http://www.w3.org/1999/xlink" baseProfile="tiny" id="svg2" xml:space="preserve">
 <metadata id="metadata23"/>
 <defs id="defs21">
  <linearGradient id="linearGradient11258">
   <stop offset="0" style="stop-color:#000000;stop-opacity:1;" id="stop11260"/>
   <stop offset="0.78629702" style="stop-color:#231f20;stop-opacity:1;" id="stop11266"/>
   <stop offset="1" style="stop-color:#4b4a4c;stop-opacity:1;" id="stop11262"/>
  </linearGradient>
  <linearGradient gradientTransform="translate(-51.999999,11.999999)" id="linearGradient11264" y1="-0.038218692" x1="30.570343" y2="33.259216" x2="30.570343" gradientUnits="userSpaceOnUse">
   <stop offset="0" style="stop-color:#000000;stop-opacity:1;" id="stop11260"/>
   <stop offset="0.78629702" style="stop-color:#231f20;stop-opacity:1;" id="stop11266"/>
   <stop offset="1" style="stop-color:#4b4a4c;stop-opacity:1;" id="stop11262"/>
  </linearGradient>
  <linearGradient id="linearGradient3032" y1="0.014148333" x1="4.0608368" y2="35.855515" x2="4.0608368" gradientUnits="userSpaceOnUse">
   <stop offset="0" style="stop-color:#000000;stop-opacity:1;" id="stop11260"/>
   <stop offset="0.78629702" style="stop-color:#231f20;stop-opacity:1;" id="stop11266"/>
   <stop offset="1" style="stop-color:#4b4a4c;stop-opacity:1;" id="stop11262"/>
  </linearGradient>
 </defs>
 <g id="DO_NOT_EDIT_-_BOUNDING_BOX-1" transform="translate(-52.186312,-3.745247)">
  <rect width="30" x="0" y="0" height="30" style="fill:none" id="BOUNDING_BOX-7"/>
 </g>
 <path style="fill:url(#linearGradient3032)" id="path3004" d="M 20,4.0000004 C 11.163077,4.0000004 4,11.163077 4,20 4,28.836923 11.163078,36 20,36 28.836923,36 36,28.836923 36,20 36,11.163077 28.836923,4.0000004 20,4.0000004 z m 2.461538,27.0769226 c 0,0.678154 -0.555077,1.230769 -1.230769,1.230769 h -2.461538 c -0.676924,0 -1.23077,-0.552615 -1.23077,-1.230769 V 20 c 0,-0.675692 -0.553846,-1.230769 -1.230768,-1.230769 h -1.23077 c -0.676923,0 -1.230769,-0.552616 -1.230769,-1.23077 0,-0.675692 0.553846,-1.230768 1.230769,-1.230768 h 6.153846 c 0.675693,0 1.230769,0.555076 1.230769,1.230768 V 31.076923 z M 20.001231,13.846154 c -1.698462,0 -3.078154,-1.379692 -3.078154,-3.076923 0,-1.6972306 1.379692,-3.0769226 3.078154,-3.0769226 1.698461,0 3.075692,1.379692 3.075692,3.0769226 0,1.697231 -1.377231,3.076923 -3.075692,3.076923 z"/>
 <path style="fill:#ffffff" id="path3036" d="M 20,5.0000004 C 11.163077,5.0000004 4,12.163077 4,21 4,29.836923 11.163078,37 20,37 28.836923,37 36,29.836923 36,21 36,12.163077 28.836923,5.0000004 20,5.0000004 z m 2.461538,27.0769226 c 0,0.678154 -0.555077,1.230769 -1.230769,1.230769 h -2.461538 c -0.676924,0 -1.23077,-0.552615 -1.23077,-1.230769 V 21 c 0,-0.675692 -0.553846,-1.230769 -1.230768,-1.230769 h -1.23077 c -0.676923,0 -1.230769,-0.552616 -1.230769,-1.23077 0,-0.675692 0.553846,-1.230768 1.230769,-1.230768 h 6.153846 c 0.675693,0 1.230769,0.555076 1.230769,1.230768 V 32.076923 z M 20.001231,14.846154 c -1.698462,0 -3.078154,-1.379692 -3.078154,-3.076923 0,-1.697231 1.379692,-3.0769226 3.078154,-3.0769226 1.698461,0 3.075692,1.3796916 3.075692,3.0769226 0,1.697231 -1.377231,3.076923 -3.075692,3.076923 z"/>
 <path style="fill:url(#linearGradient3032)" id="path3034" d="M 20,4.0000004 C 11.163077,4.0000004 4,11.163077 4,20 4,28.836923 11.163078,36 20,36 28.836923,36 36,28.836923 36,20 36,11.163077 28.836923,4.0000004 20,4.0000004 z m 2.461538,27.0769226 c 0,0.678154 -0.555077,1.230769 -1.230769,1.230769 h -2.461538 c -0.676924,0 -1.23077,-0.552615 -1.23077,-1.230769 V 20 c 0,-0.675692 -0.553846,-1.230769 -1.230768,-1.230769 h -1.23077 c -0.676923,0 -1.230769,-0.552616 -1.230769,-1.23077 0,-0.675692 0.553846,-1.230768 1.230769,-1.230768 h 6.153846 c 0.675693,0 1.230769,0.555076 1.230769,1.230768 V 31.076923 z M 20.001231,13.846154 c -1.698462,0 -3.078154,-1.379692 -3.078154,-3.076923 0,-1.6972306 1.379692,-3.0769226 3.078154,-3.0769226 1.698461,0 3.075692,1.379692 3.075692,3.0769226 0,1.697231 -1.377231,3.076923 -3.075692,3.076923 z"/>
</svg>
