<?xml version="1.0"?>
<!-- Converted with SVG Converter - Version 0.9.5 (Compiled Mon May 30 09:08:51 2011) - Copyright (C) 2011 Nokia -->
<svg xmlns="http://www.w3.org/2000/svg" width="30px" x="0px" version="1.1" y="0px" height="30px" viewBox="0 0 30 30" baseProfile="tiny" xmlns:xlink="http://www.w3.org/1999/xlink" id="svg2">
 <metadata id="metadata16"/>
 <defs id="defs14"/>
 <path style="fill:#000000;fill-opacity:0.19607843;stroke:none" id="path3465-1" d="m -57.452429,322.72429 -31.824784,-1.44021 -31.323657,-0.77092 17.15966,-26.84096 16.329457,-26.74163 14.665126,28.28118 z" transform="matrix(0.28791821,0.00351627,0.00973635,-0.10398128,38.2389,54.875464)"/>
 <rect width="30" fill="none" height="30" id="rect10"/>
 <path style="fill:#000000;fill-opacity:0.39215687;stroke:none" id="path3075" d="m 23.225862,21.082682 -7.56186,0.03267 -7.4376007,-0.02588 3.8557227,2.46098 L 15.74168,26 19.447819,23.50635 z m -13.165863,-7.047502 10.485672,0 0,1.916265 -10.485671,-10e-7 z m 12.561268,-4.3971435 1.843635,-3e-7 0,1.9162648 -1.843635,0 z m -4.214014,2e-7 1.843635,-3e-7 0,1.9162646 -1.843635,0 z m -4.214033,-1e-7 1.843635,-3e-7 0,1.9162647 -1.843635,0 z m -4.2140083,-7e-7 1.8436343,6e-7 0,1.9162645 -1.8436361,10e-7 z m -4.2140313,0 1.8436361,6e-7 -1.7e-6,1.9162645 -1.8436339,10e-7 z m 18.9631106,-3.8325303 1.843634,-3e-7 0,1.9162648 -1.843634,4e-7 z m -4.21403,0 1.843635,-3e-7 0,1.9162648 -1.843635,3e-7 z m -4.214014,2e-7 1.843635,-3e-7 0,1.9162648 -1.843635,3e-7 z m -4.214024,0 1.843633,-3e-7 1e-6,1.9162648 -1.843636,3e-7 z m -4.2140342,-10e-8 1.8436339,-3e-7 7e-7,1.9162648 -1.8436363,3e-7 z m -4.2140147,2e-7 1.8436338,-3e-7 7e-7,1.9162648 -1.8436339,3e-7 z M 5.8437507,1.9999995 c -3.2107958,-4e-7 -5.87500094,2.4365998 -5.87500099,5.5000002 l 3.8e-7,6.0312503 c 2e-8,3.063399 2.66420571,5.499999 5.87499921,5.499999 l 18.2500007,0 c 3.210794,0 5.875,-2.436599 5.875,-5.5 l 0,-6.0312498 c 0,-3.0633995 -2.664206,-5.4999997 -5.875,-5.5000002 l -18.2499993,5e-7 z m -8e-7,1.5937497 18.2500001,4e-7 c 2.415769,-6e-7 4.28125,1.7759014 4.28125,3.9062497 l 0,6.0312497 c 0,2.13035 -1.865481,3.875 -4.28125,3.875 l -18.2499995,1e-6 c -2.4157681,-1e-6 -4.2500016,-1.744652 -4.2500013,-3.875 l 2e-6,-6.0312504 C 1.5937491,5.3696504 3.4279817,3.5937497 5.8437499,3.5937492 z"/>
 <path style="fill:#ffffff;fill-opacity:1;stroke:none" id="path3465" d="m -57.452429,322.72429 -31.824784,-1.44021 -31.323657,-0.77092 17.15966,-26.84096 16.329457,-26.74163 14.665126,28.28118 z m -58.083591,76.56195 44.146961,1.49289 0.721217,-21.32741 -44.146958,-1.49289 z m 51.230736,50.72719 7.762105,0.26249 0.721218,-21.32741 -7.762105,-0.26249 z m -17.741916,-0.59997 7.762104,0.26249 0.721218,-21.32741 -7.762105,-0.26249 z m -17.741997,-0.59997 7.762105,0.26249 0.721217,-21.32741 -7.762105,-0.26249 z m -17.741893,-0.59996 7.7621,0.26248 0.72122,-21.32741 -7.76211,-0.26249 z m -17.74199,-0.59997 7.76211,0.26248 0.72121,-21.32741 -7.7621,-0.26249 z m 78.396391,45.35469 7.762101,0.26249 0.721217,-21.32741 -7.7621,-0.26249 z m -17.741984,-0.59997 7.762105,0.26249 0.721217,-21.32741 -7.762105,-0.26249 z m -17.741917,-0.59997 7.762105,0.26249 0.721218,-21.32741 -7.762105,-0.26249 z m -17.74196,-0.59997 7.7621,0.26249 0.72122,-21.32741 -7.76211,-0.26249 z m -17.742,-0.59997 7.7621,0.26249 0.72122,-21.32741 -7.76211,-0.26249 z m -17.74192,-0.59997 7.7621,0.26249 0.72122,-21.32741 -7.7621,-0.26249 z m 7.76949,42.66523 c -13.51815,-0.45713 -23.81798,-27.95502 -22.66502,-62.04968 l 2.26996,-67.12587 c 1.15296,-34.09465 13.2869,-60.83391 26.80504,-60.37677 l 76.836478,2.59833 c 13.518142,0.45714 23.817976,27.95502 22.665016,62.04968 l -2.269959,67.12587 c -1.15296,34.09465 -13.286901,60.83391 -26.805043,60.37678 l -76.836472,-2.59834 z m 0.59983,-17.73792 76.836475,2.59833 c 10.170914,0.34395 18.693385,-19.15567 19.495176,-42.86576 l 2.269958,-67.12587 c 0.801791,-23.7101 -6.395662,-43.3931 -16.566576,-43.73704 l -76.836473,-2.59834 c -10.17091,-0.34394 -18.55006,18.81232 -19.35185,42.52241 l -2.26995,67.12587 c -0.8018,23.7101 6.25233,43.73645 16.42324,44.0804 z" transform="matrix(0.2372461,0.00303493,0.00802282,-0.08974723,34.267068,51.220658)"/>
</svg>
