<?xml version="1.0" encoding="UTF-8" standalone="no"?>
<!-- Converted with SVG Converter - Version 0.9.5 (Compiled Mon May 30 09:08:51 2011) - Copyright (C) 2011 Nokia -->

<svg
   xmlns:dc="http://purl.org/dc/elements/1.1/"
   xmlns:cc="http://creativecommons.org/ns#"
   xmlns:rdf="http://www.w3.org/1999/02/22-rdf-syntax-ns#"
   xmlns:svg="http://www.w3.org/2000/svg"
   xmlns="http://www.w3.org/2000/svg"
   xmlns:sodipodi="http://sodipodi.sourceforge.net/DTD/sodipodi-0.dtd"
   xmlns:inkscape="http://www.inkscape.org/namespaces/inkscape"
   width="48"
   x="0px"
   y="0px"
   version="1.1"
   viewBox="0 0 48 48"
   height="48"
   id="svg3848"
   xml:space="preserve"
   inkscape:version="0.48.0 r9654"
   sodipodi:docname="favourite_white.svg"><sodipodi:namedview
   pagecolor="#ffffff"
   bordercolor="#666666"
   borderopacity="1"
   objecttolerance="10"
   gridtolerance="10"
   guidetolerance="10"
   inkscape:pageopacity="0"
   inkscape:pageshadow="2"
   inkscape:window-width="855"
   inkscape:window-height="480"
   id="namedview33"
   showgrid="false"
   inkscape:zoom="5.375"
   inkscape:cx="24"
   inkscape:cy="24"
   inkscape:window-x="0"
   inkscape:window-y="0"
   inkscape:window-maximized="0"
   inkscape:current-layer="svg3848" />
 <metadata
   id="metadata3877"><rdf:RDF><cc:Work
       rdf:about=""><dc:format>image/svg+xml</dc:format><dc:type
         rdf:resource="http://purl.org/dc/dcmitype/StillImage" /></cc:Work></rdf:RDF></metadata>
 <defs
   id="defs3875">
  <linearGradient
   id="SVGID_1_-1"
   y1="51.5"
   x1="33.5005"
   y2="5.5005002"
   gradientUnits="userSpaceOnUse"
   x2="33.5005">
   <stop
   offset="0"
   style="stop-color:#61744b;stop-opacity:1;"
   id="stop14" />
   <stop
   offset="0.50309998"
   style="stop-color:#8fd257;stop-opacity:1;"
   id="stop16" />
   <stop
   offset="0.60000002"
   style="stop-color:#7cc143;stop-opacity:1;"
   id="stop3793" />
   <stop
   offset="0.96929997"
   style="stop-color:#6ab12f;stop-opacity:1;"
   id="stop18" />
  </linearGradient>
  <linearGradient
   id="linearGradient3785"
   y1="51.5"
   y2="5.5005002"
   x1="33.5005"
   x2="33.5005"
   gradientUnits="userSpaceOnUse">
   <stop
   offset="0"
   style="stop-color:#D0CBC5"
   id="stop3787" />
   <stop
   offset="0.5031"
   style="stop-color:#FAFCEF"
   id="stop3789" />
   <stop
   offset="0.9693"
   style="stop-color:#FFFFFF"
   id="stop3791" />
  </linearGradient>
  <linearGradient
   gradientTransform="translate(-44.103652,-14.581395)"
   id="linearGradient3815"
   y1="51.5"
   y2="5.5005002"
   x1="33.5005"
   x2="33.5005"
   gradientUnits="userSpaceOnUse">
   <stop
   offset="0"
   style="stop-color:#61744b;stop-opacity:1;"
   id="stop15" />
   <stop
   offset="0.50309998"
   style="stop-color:#8fd257;stop-opacity:1;"
   id="stop17" />
   <stop
   offset="0.60000002"
   style="stop-color:#7cc143;stop-opacity:1;"
   id="stop19" />
   <stop
   offset="0.96929997"
   style="stop-color:#6ab12f;stop-opacity:1;"
   id="stop21" />
  </linearGradient>
  <linearGradient
   id="SVGID_1_"
   y1="50.0625"
   y2="6.9380002"
   x1="33.5005"
   x2="33.5005"
   gradientUnits="userSpaceOnUse">
   <stop
   offset="0"
   style="stop-color:#D0CBC5"
   id="stop3862" />
   <stop
   offset="0.5031"
   style="stop-color:#FAFCEF"
   id="stop3864" />
   <stop
   offset="0.9693"
   style="stop-color:#FFFFFF"
   id="stop3866" />
  </linearGradient>
  <linearGradient
   id="linearGradient4440"
   y1="50.0625"
   x1="33.5005"
   y2="6.9380002"
   gradientUnits="userSpaceOnUse"
   x2="33.5005">
   <stop
   offset="0"
   style="stop-color:#61744b;stop-opacity:1;"
   id="stop28" />
   <stop
   offset="0.50309998"
   style="stop-color:#8fd257;stop-opacity:1;"
   id="stop30" />
   <stop
   offset="0.60000002"
   style="stop-color:#7cc143;stop-opacity:1;"
   id="stop32" />
   <stop
   offset="0.96929997"
   style="stop-color:#6ab12f;stop-opacity:1;"
   id="stop34" />
  </linearGradient>
 </defs>
 <g
   id="DO_NOT_EDIT_-_BOUNDING_BOX"
   transform="translate(0,-9)">
  <rect
   width="67"
   x="0"
   y="0"
   height="57"
   style="fill:none"
   id="BOUNDING_BOX" />
 </g>
 <path
   style="fill:#ffffff"
   id="path3853"
   d="m 44.000003,19.836245 c 0,-0.762168 -0.610435,-1.368377 -1.366957,-1.388643 h -0.01391 c -0.0061,0 -0.0113,-0.0044 -0.01739,-0.0044 -0.0087,0 -0.01391,0.0044 -0.01913,0.0044 L 29.401742,18.452008 25.323481,5.9551035 C 25.136525,5.4052855 24.628699,4.999971 24.011307,4.999971 c -0.605217,0 -1.109565,0.3929789 -1.302608,0.9331046 h -0.02174 l -4.085217,12.5189324 -13.0808694,-0.0035 -0.00609,0.01586 c -0.044348,0 -0.078261,-0.01938 -0.12,-0.01938 C 4.6243478,18.444988 4,19.067058 4,19.838036 c 0,0.5507 0.3295652,1.022098 0.8034783,1.246783 l -0.011301,0.02379 10.4747817,7.55383 -4.03739,12.33654 c -0.09217,0.191203 -0.156522,0.388574 -0.156522,0.615902 0,0.764811 0.625217,1.385119 1.394783,1.385119 0.305217,0 0.569565,-0.116308 0.79826,-0.282839 l 0.01478,0.0088 10.719131,-7.749438 10.526956,7.612865 c 0.01131,0.01145 0.02783,0.01674 0.03913,0.02644 l 0.09217,0.06344 h 0.0026 c 0.24,0.187679 0.526957,0.318965 0.856522,0.318965 0.773044,0 1.4,-0.620308 1.4,-1.385119 0,-0.125118 -0.04174,-0.231733 -0.06956,-0.346279 l 0.0087,-0.0044 -0.03044,-0.09428 c -0.01478,-0.04406 -0.02261,-0.09163 -0.04261,-0.134811 l -4.046956,-12.372666 10.661739,-7.689522 -0.0061,-0.01938 c 0.36,-0.252 0.607826,-0.647622 0.607826,-1.115496 z"
   inkscape:connector-curvature="0" />
 <rect
   width="30"
   x="16.381001"
   y="6.382"
   height="30"
   style="fill:none"
   id="rect3855" />
 <g
   id="DO_NOT_EDIT_-_FOCAL_ZONE_GUIDES"
   transform="translate(0,-9)" />
</svg>