<?xml version="1.0"?>
<!-- Converted with SVG Converter - Version 0.9.5 (Compiled Mon May 30 09:08:51 2011) - Copyright (C) 2011 Nokia -->
<svg xmlns="http://www.w3.org/2000/svg" width="30px" x="0px" y="0px" version="1.1" viewBox="0 0 30 30" height="30px" baseProfile="tiny" xmlns:xlink="http://www.w3.org/1999/xlink" id="svg2" xml:space="preserve">
 <metadata id="metadata25"/>
 <defs id="defs23"/>
 <g id="DO_NOT_EDIT_-_BOUNDING_BOX">
  <rect width="30" fill="none" height="30" id="BOUNDING_BOX"/>
 </g>
 <rect width="30" x="0" y="0" height="30" style="fill:none" id="rect15"/>
 <path style="opacity:0.15" id="path17" d="M 27.268,23.732 22.334,18.798 C 23.385,17.113 24,15.131 24,13 24,6.925 19.076,2 13,2 6.926,2 2,6.925 2,13 c 0,6.074 4.926,11 11,11 2.131,0 4.113,-0.617 5.799,-1.666 l 4.934,4.934 c 0.979,0.977 2.561,0.977 3.535,0 0.976,-0.977 0.976,-2.559 0,-3.536 z M 13,20.5 C 8.863,20.5 5.5,17.137 5.5,13 5.5,8.863 8.863,5.5 13,5.5 c 4.137,0 7.5,3.363 7.5,7.5 0,4.137 -3.363,7.5 -7.5,7.5 z"/>
 <path style="fill:#ffffff" id="path19" d="M 27.268,23.732 22.334,18.798 C 23.385,17.113 24,15.131 24,13 24,6.925 19.076,2 13,2 6.926,2 2,6.925 2,13 c 0,6.074 4.926,11 11,11 2.131,0 4.113,-0.617 5.799,-1.666 l 4.934,4.934 c 0.979,0.977 2.561,0.977 3.535,0 0.976,-0.977 0.976,-2.559 0,-3.536 z M 13,20.5 C 8.863,20.5 5.5,17.137 5.5,13 5.5,8.863 8.863,5.5 13,5.5 c 4.137,0 7.5,3.363 7.5,7.5 0,4.137 -3.363,7.5 -7.5,7.5 z"/>
</svg>
