<?xml version="1.0" encoding="UTF-8" standalone="no"?>
<!-- Converted with SVG Converter - Version 0.9.5 (Compiled Mon May 30 09:08:51 2011) - Copyright (C) 2011 Nokia -->

<svg
   xmlns:dc="http://purl.org/dc/elements/1.1/"
   xmlns:cc="http://creativecommons.org/ns#"
   xmlns:rdf="http://www.w3.org/1999/02/22-rdf-syntax-ns#"
   xmlns:svg="http://www.w3.org/2000/svg"
   xmlns="http://www.w3.org/2000/svg"
   xmlns:sodipodi="http://sodipodi.sourceforge.net/DTD/sodipodi-0.dtd"
   xmlns:inkscape="http://www.inkscape.org/namespaces/inkscape"
   width="48"
   x="0px"
   y="0px"
   version="1.1"
   viewBox="0 0 48 48"
   height="48"
   id="svg3848"
   xml:space="preserve"
   inkscape:version="0.48.0 r9654"
   sodipodi:docname="settings_white.svg"><sodipodi:namedview
   pagecolor="#ffffff"
   bordercolor="#666666"
   borderopacity="1"
   objecttolerance="10"
   gridtolerance="10"
   guidetolerance="10"
   inkscape:pageopacity="0"
   inkscape:pageshadow="2"
   inkscape:window-width="855"
   inkscape:window-height="480"
   id="namedview33"
   showgrid="false"
   inkscape:zoom="5.375"
   inkscape:cx="24"
   inkscape:cy="24"
   inkscape:window-x="0"
   inkscape:window-y="0"
   inkscape:window-maximized="0"
   inkscape:current-layer="svg3848" />
 <metadata
   id="metadata3877"><rdf:RDF><cc:Work
       rdf:about=""><dc:format>image/svg+xml</dc:format><dc:type
         rdf:resource="http://purl.org/dc/dcmitype/StillImage" /><dc:title></dc:title></cc:Work></rdf:RDF></metadata>
 <defs
   id="defs3875">
  <linearGradient
   id="SVGID_1_-1"
   y1="51.5"
   x1="33.5005"
   y2="5.5005002"
   gradientUnits="userSpaceOnUse"
   x2="33.5005">
   <stop
   offset="0"
   style="stop-color:#61744b;stop-opacity:1;"
   id="stop14" />
   <stop
   offset="0.50309998"
   style="stop-color:#8fd257;stop-opacity:1;"
   id="stop16" />
   <stop
   offset="0.60000002"
   style="stop-color:#7cc143;stop-opacity:1;"
   id="stop3793" />
   <stop
   offset="0.96929997"
   style="stop-color:#6ab12f;stop-opacity:1;"
   id="stop18" />
  </linearGradient>
  <linearGradient
   id="linearGradient3785"
   y1="51.5"
   y2="5.5005002"
   x1="33.5005"
   x2="33.5005"
   gradientUnits="userSpaceOnUse">
   <stop
   offset="0"
   style="stop-color:#D0CBC5"
   id="stop3787" />
   <stop
   offset="0.5031"
   style="stop-color:#FAFCEF"
   id="stop3789" />
   <stop
   offset="0.9693"
   style="stop-color:#FFFFFF"
   id="stop3791" />
  </linearGradient>
  <linearGradient
   gradientTransform="translate(-44.103652,-14.581395)"
   id="linearGradient3815"
   y1="51.5"
   y2="5.5005002"
   x1="33.5005"
   x2="33.5005"
   gradientUnits="userSpaceOnUse">
   <stop
   offset="0"
   style="stop-color:#61744b;stop-opacity:1;"
   id="stop15" />
   <stop
   offset="0.50309998"
   style="stop-color:#8fd257;stop-opacity:1;"
   id="stop17" />
   <stop
   offset="0.60000002"
   style="stop-color:#7cc143;stop-opacity:1;"
   id="stop19" />
   <stop
   offset="0.96929997"
   style="stop-color:#6ab12f;stop-opacity:1;"
   id="stop21" />
  </linearGradient>
  <linearGradient
   id="SVGID_1_"
   y1="50.0625"
   y2="6.9380002"
   x1="33.5005"
   x2="33.5005"
   gradientUnits="userSpaceOnUse">
   <stop
   offset="0"
   style="stop-color:#D0CBC5"
   id="stop3862" />
   <stop
   offset="0.5031"
   style="stop-color:#FAFCEF"
   id="stop3864" />
   <stop
   offset="0.9693"
   style="stop-color:#FFFFFF"
   id="stop3866" />
  </linearGradient>
  <linearGradient
   id="linearGradient4440"
   y1="50.0625"
   x1="33.5005"
   y2="6.9380002"
   gradientUnits="userSpaceOnUse"
   x2="33.5005">
   <stop
   offset="0"
   style="stop-color:#61744b;stop-opacity:1;"
   id="stop28" />
   <stop
   offset="0.50309998"
   style="stop-color:#8fd257;stop-opacity:1;"
   id="stop30" />
   <stop
   offset="0.60000002"
   style="stop-color:#7cc143;stop-opacity:1;"
   id="stop32" />
   <stop
   offset="0.96929997"
   style="stop-color:#6ab12f;stop-opacity:1;"
   id="stop34" />
  </linearGradient>
 
	
	
	
	
</defs>
 <g
   id="DO_NOT_EDIT_-_BOUNDING_BOX"
   transform="translate(0,-9)">
  <rect
   width="67"
   x="0"
   y="0"
   height="57"
   style="fill:none"
   id="BOUNDING_BOX" />
 </g>
 
 <rect
   width="30"
   x="16.381001"
   y="6.382"
   height="30"
   style="fill:none"
   id="rect3855" />
 <g
   id="DO_NOT_EDIT_-_FOCAL_ZONE_GUIDES"
   transform="translate(0,-9)" />
<g
   id="DO_NOT_EDIT_-_BOUNDING_BOX-1"
   transform="matrix(1.3333333,0,0,1.3333333,3.7906979,3.837209)">
	<rect
   style="fill:none"
   y="0"
   x="0"
   id="BOUNDING_BOX-7"
   width="30"
   height="30" />
</g><path
   id="path3020"
   d="m 38.524688,26.515432 c 0.144691,-0.819113 0.233843,-1.655653 0.233843,-2.515431 0,-0.856873 -0.09062,-1.693414 -0.232382,-2.511074 l 3.947584,-3.231429 c 0.533457,-0.434246 0.686917,-1.276595 0.341997,-1.872051 l -2.771055,-4.770895 c -0.341997,-0.594001 -1.153144,-0.881563 -1.8006,-0.641929 l -4.777731,1.780554 C 32.172892,11.677002 30.686519,10.828843 29.071532,10.242103 L 28.231154,5.2301217 C 28.117155,4.554789 27.459468,4 26.771089,4 h -5.54211 c -0.691301,0 -1.346066,0.554789 -1.461526,1.2301217 l -0.840377,5.0119813 c -1.613525,0.58674 -3.099898,1.434899 -4.391889,2.511074 L 9.755995,10.974076 C 9.11,10.734442 8.298853,11.022006 7.9539325,11.616004 L 5.1843389,16.3869 c -0.3449197,0.594003 -0.1914593,1.4349 0.340536,1.870598 l 3.9490461,3.229976 c -0.144691,0.819113 -0.233846,1.655654 -0.233846,2.513979 0,0.859778 0.08915,1.696318 0.233846,2.51543 l -3.9475849,3.227072 c -0.5319953,0.43715 -0.6854557,1.2795 -0.340535,1.874955 l 2.7695925,4.765086 C 8.301775,36.97945 9.112922,37.265559 9.757456,37.027377 l 4.77627,-1.7791 c 1.293452,1.074721 2.778362,1.919976 4.391888,2.508169 l 0.840378,5.011981 C 19.879991,43.446663 20.539139,44 21.227518,44 h 5.54211 c 0.68984,0 1.346066,-0.553337 1.460065,-1.231573 l 0.840378,-5.011981 c 1.613526,-0.586741 3.099899,-1.431995 4.39335,-2.511075 l 4.779191,1.782006 c 0.645996,0.238182 1.457143,-0.05084 1.799141,-0.643381 l 2.771055,-4.767991 c 0.344919,-0.595454 0.191459,-1.437804 -0.340537,-1.87205 l -3.947583,-3.228523 z m -14.526115,4.961149 c -4.150736,0 -7.526862,-3.353423 -7.526862,-7.47658 0,-4.123158 3.376126,-7.479486 7.526862,-7.479486 4.149274,0 7.525402,3.356328 7.525402,7.479486 0,4.124609 -3.376128,7.47658 -7.525402,7.47658 z"
   inkscape:connector-curvature="0"
   style="fill:#ffffff" /></svg>